<mxfile host="Electron" agent="Mozilla/5.0 (Windows NT 10.0; Win64; x64) AppleWebKit/537.36 (KHTML, like Gecko) draw.io/27.0.9 Chrome/134.0.6998.205 Electron/35.4.0 Safari/537.36" version="27.0.9">
  <diagram name="Page-1" id="QLJ5F9rMk6sv4ZRZFktZ">
    <mxGraphModel dx="662" dy="1015" grid="1" gridSize="10" guides="1" tooltips="1" connect="1" arrows="1" fold="1" page="1" pageScale="1" pageWidth="1920" pageHeight="1200" math="0" shadow="0">
      <root>
        <mxCell id="0" />
        <mxCell id="1" parent="0" />
        <mxCell id="c9gzcdYkhfpSSNdLox6r-1" value="&lt;b&gt;&lt;font style=&quot;font-size: 25px;&quot;&gt;Sales Data Mart&lt;/font&gt;&lt;/b&gt; (Star Schema)" style="text;html=1;align=center;verticalAlign=middle;whiteSpace=wrap;rounded=0;" parent="1" vertex="1">
          <mxGeometry x="40" y="50" width="280" height="30" as="geometry" />
        </mxCell>
        <mxCell id="c9gzcdYkhfpSSNdLox6r-2" value="gold.dim_customers" style="shape=table;startSize=40;container=1;collapsible=1;childLayout=tableLayout;fixedRows=1;rowLines=0;fontStyle=1;align=center;resizeLast=1;html=1;rounded=1;fontSize=16;fillColor=#fff2cc;strokeColor=#d6b656;" parent="1" vertex="1">
          <mxGeometry x="160" y="160" width="280" height="440" as="geometry" />
        </mxCell>
        <mxCell id="c9gzcdYkhfpSSNdLox6r-3" value="" style="shape=tableRow;horizontal=0;startSize=0;swimlaneHead=0;swimlaneBody=0;fillColor=none;collapsible=0;dropTarget=0;points=[[0,0.5],[1,0.5]];portConstraint=eastwest;top=0;left=0;right=0;bottom=1;fontSize=16;fontStyle=1" parent="c9gzcdYkhfpSSNdLox6r-2" vertex="1">
          <mxGeometry y="40" width="280" height="40" as="geometry" />
        </mxCell>
        <mxCell id="c9gzcdYkhfpSSNdLox6r-4" value="PK" style="shape=partialRectangle;connectable=0;fillColor=none;top=0;left=0;bottom=0;right=0;fontStyle=1;overflow=hidden;whiteSpace=wrap;html=1;fontSize=16;" parent="c9gzcdYkhfpSSNdLox6r-3" vertex="1">
          <mxGeometry width="40" height="40" as="geometry">
            <mxRectangle width="40" height="40" as="alternateBounds" />
          </mxGeometry>
        </mxCell>
        <mxCell id="c9gzcdYkhfpSSNdLox6r-5" value="customer_key" style="shape=partialRectangle;connectable=0;fillColor=none;top=0;left=0;bottom=0;right=0;align=left;spacingLeft=6;fontStyle=5;overflow=hidden;whiteSpace=wrap;html=1;fontSize=16;" parent="c9gzcdYkhfpSSNdLox6r-3" vertex="1">
          <mxGeometry x="40" width="240" height="40" as="geometry">
            <mxRectangle width="240" height="40" as="alternateBounds" />
          </mxGeometry>
        </mxCell>
        <mxCell id="c9gzcdYkhfpSSNdLox6r-6" value="" style="shape=tableRow;horizontal=0;startSize=0;swimlaneHead=0;swimlaneBody=0;fillColor=none;collapsible=0;dropTarget=0;points=[[0,0.5],[1,0.5]];portConstraint=eastwest;top=0;left=0;right=0;bottom=0;fontSize=16;fontStyle=1" parent="c9gzcdYkhfpSSNdLox6r-2" vertex="1">
          <mxGeometry y="80" width="280" height="39" as="geometry" />
        </mxCell>
        <mxCell id="c9gzcdYkhfpSSNdLox6r-7" value="" style="shape=partialRectangle;connectable=0;fillColor=none;top=0;left=0;bottom=0;right=0;editable=1;overflow=hidden;whiteSpace=wrap;html=1;fontSize=16;fontStyle=1" parent="c9gzcdYkhfpSSNdLox6r-6" vertex="1">
          <mxGeometry width="40" height="39" as="geometry">
            <mxRectangle width="40" height="39" as="alternateBounds" />
          </mxGeometry>
        </mxCell>
        <mxCell id="c9gzcdYkhfpSSNdLox6r-8" value="customer_id" style="shape=partialRectangle;connectable=0;fillColor=none;top=0;left=0;bottom=0;right=0;align=left;spacingLeft=6;overflow=hidden;whiteSpace=wrap;html=1;fontSize=16;fontStyle=1" parent="c9gzcdYkhfpSSNdLox6r-6" vertex="1">
          <mxGeometry x="40" width="240" height="39" as="geometry">
            <mxRectangle width="240" height="39" as="alternateBounds" />
          </mxGeometry>
        </mxCell>
        <mxCell id="c9gzcdYkhfpSSNdLox6r-9" value="" style="shape=tableRow;horizontal=0;startSize=0;swimlaneHead=0;swimlaneBody=0;fillColor=none;collapsible=0;dropTarget=0;points=[[0,0.5],[1,0.5]];portConstraint=eastwest;top=0;left=0;right=0;bottom=0;fontSize=16;fontStyle=1" parent="c9gzcdYkhfpSSNdLox6r-2" vertex="1">
          <mxGeometry y="119" width="280" height="39" as="geometry" />
        </mxCell>
        <mxCell id="c9gzcdYkhfpSSNdLox6r-10" value="" style="shape=partialRectangle;connectable=0;fillColor=none;top=0;left=0;bottom=0;right=0;editable=1;overflow=hidden;whiteSpace=wrap;html=1;fontSize=16;fontStyle=1" parent="c9gzcdYkhfpSSNdLox6r-9" vertex="1">
          <mxGeometry width="40" height="39" as="geometry">
            <mxRectangle width="40" height="39" as="alternateBounds" />
          </mxGeometry>
        </mxCell>
        <mxCell id="c9gzcdYkhfpSSNdLox6r-11" value="customer_number" style="shape=partialRectangle;connectable=0;fillColor=none;top=0;left=0;bottom=0;right=0;align=left;spacingLeft=6;overflow=hidden;whiteSpace=wrap;html=1;fontSize=16;fontStyle=1" parent="c9gzcdYkhfpSSNdLox6r-9" vertex="1">
          <mxGeometry x="40" width="240" height="39" as="geometry">
            <mxRectangle width="240" height="39" as="alternateBounds" />
          </mxGeometry>
        </mxCell>
        <mxCell id="c9gzcdYkhfpSSNdLox6r-12" value="" style="shape=tableRow;horizontal=0;startSize=0;swimlaneHead=0;swimlaneBody=0;fillColor=none;collapsible=0;dropTarget=0;points=[[0,0.5],[1,0.5]];portConstraint=eastwest;top=0;left=0;right=0;bottom=0;fontSize=16;fontStyle=1" parent="c9gzcdYkhfpSSNdLox6r-2" vertex="1">
          <mxGeometry y="158" width="280" height="39" as="geometry" />
        </mxCell>
        <mxCell id="c9gzcdYkhfpSSNdLox6r-13" value="" style="shape=partialRectangle;connectable=0;fillColor=none;top=0;left=0;bottom=0;right=0;editable=1;overflow=hidden;whiteSpace=wrap;html=1;fontSize=16;fontStyle=1" parent="c9gzcdYkhfpSSNdLox6r-12" vertex="1">
          <mxGeometry width="40" height="39" as="geometry">
            <mxRectangle width="40" height="39" as="alternateBounds" />
          </mxGeometry>
        </mxCell>
        <mxCell id="c9gzcdYkhfpSSNdLox6r-14" value="first_name" style="shape=partialRectangle;connectable=0;fillColor=none;top=0;left=0;bottom=0;right=0;align=left;spacingLeft=6;overflow=hidden;whiteSpace=wrap;html=1;fontSize=16;fontStyle=1" parent="c9gzcdYkhfpSSNdLox6r-12" vertex="1">
          <mxGeometry x="40" width="240" height="39" as="geometry">
            <mxRectangle width="240" height="39" as="alternateBounds" />
          </mxGeometry>
        </mxCell>
        <mxCell id="c9gzcdYkhfpSSNdLox6r-22" style="shape=tableRow;horizontal=0;startSize=0;swimlaneHead=0;swimlaneBody=0;fillColor=none;collapsible=0;dropTarget=0;points=[[0,0.5],[1,0.5]];portConstraint=eastwest;top=0;left=0;right=0;bottom=0;fontSize=16;fontStyle=1" parent="c9gzcdYkhfpSSNdLox6r-2" vertex="1">
          <mxGeometry y="197" width="280" height="39" as="geometry" />
        </mxCell>
        <mxCell id="c9gzcdYkhfpSSNdLox6r-23" style="shape=partialRectangle;connectable=0;fillColor=none;top=0;left=0;bottom=0;right=0;editable=1;overflow=hidden;whiteSpace=wrap;html=1;fontSize=16;fontStyle=1" parent="c9gzcdYkhfpSSNdLox6r-22" vertex="1">
          <mxGeometry width="40" height="39" as="geometry">
            <mxRectangle width="40" height="39" as="alternateBounds" />
          </mxGeometry>
        </mxCell>
        <mxCell id="c9gzcdYkhfpSSNdLox6r-24" value="last_name&lt;span style=&quot;white-space: pre;&quot;&gt;&#x9;&lt;/span&gt;&lt;span style=&quot;white-space: pre;&quot;&gt;&#x9;&lt;/span&gt;&lt;span style=&quot;white-space: pre;&quot;&gt;&#x9;&lt;/span&gt;&lt;span style=&quot;white-space: pre;&quot;&gt;&#x9;&lt;/span&gt;&lt;span style=&quot;white-space: pre;&quot;&gt;&#x9;&lt;/span&gt;" style="shape=partialRectangle;connectable=0;fillColor=none;top=0;left=0;bottom=0;right=0;align=left;spacingLeft=6;overflow=hidden;whiteSpace=wrap;html=1;fontSize=16;fontStyle=1" parent="c9gzcdYkhfpSSNdLox6r-22" vertex="1">
          <mxGeometry x="40" width="240" height="39" as="geometry">
            <mxRectangle width="240" height="39" as="alternateBounds" />
          </mxGeometry>
        </mxCell>
        <mxCell id="c9gzcdYkhfpSSNdLox6r-25" style="shape=tableRow;horizontal=0;startSize=0;swimlaneHead=0;swimlaneBody=0;fillColor=none;collapsible=0;dropTarget=0;points=[[0,0.5],[1,0.5]];portConstraint=eastwest;top=0;left=0;right=0;bottom=0;fontSize=16;fontStyle=1" parent="c9gzcdYkhfpSSNdLox6r-2" vertex="1">
          <mxGeometry y="236" width="280" height="39" as="geometry" />
        </mxCell>
        <mxCell id="c9gzcdYkhfpSSNdLox6r-26" style="shape=partialRectangle;connectable=0;fillColor=none;top=0;left=0;bottom=0;right=0;editable=1;overflow=hidden;whiteSpace=wrap;html=1;fontSize=16;fontStyle=1" parent="c9gzcdYkhfpSSNdLox6r-25" vertex="1">
          <mxGeometry width="40" height="39" as="geometry">
            <mxRectangle width="40" height="39" as="alternateBounds" />
          </mxGeometry>
        </mxCell>
        <mxCell id="c9gzcdYkhfpSSNdLox6r-27" value="country" style="shape=partialRectangle;connectable=0;fillColor=none;top=0;left=0;bottom=0;right=0;align=left;spacingLeft=6;overflow=hidden;whiteSpace=wrap;html=1;fontSize=16;fontStyle=1" parent="c9gzcdYkhfpSSNdLox6r-25" vertex="1">
          <mxGeometry x="40" width="240" height="39" as="geometry">
            <mxRectangle width="240" height="39" as="alternateBounds" />
          </mxGeometry>
        </mxCell>
        <mxCell id="c9gzcdYkhfpSSNdLox6r-28" style="shape=tableRow;horizontal=0;startSize=0;swimlaneHead=0;swimlaneBody=0;fillColor=none;collapsible=0;dropTarget=0;points=[[0,0.5],[1,0.5]];portConstraint=eastwest;top=0;left=0;right=0;bottom=0;fontSize=16;fontStyle=1" parent="c9gzcdYkhfpSSNdLox6r-2" vertex="1">
          <mxGeometry y="275" width="280" height="39" as="geometry" />
        </mxCell>
        <mxCell id="c9gzcdYkhfpSSNdLox6r-29" style="shape=partialRectangle;connectable=0;fillColor=none;top=0;left=0;bottom=0;right=0;editable=1;overflow=hidden;whiteSpace=wrap;html=1;fontSize=16;fontStyle=1" parent="c9gzcdYkhfpSSNdLox6r-28" vertex="1">
          <mxGeometry width="40" height="39" as="geometry">
            <mxRectangle width="40" height="39" as="alternateBounds" />
          </mxGeometry>
        </mxCell>
        <mxCell id="c9gzcdYkhfpSSNdLox6r-30" value="marital_status" style="shape=partialRectangle;connectable=0;fillColor=none;top=0;left=0;bottom=0;right=0;align=left;spacingLeft=6;overflow=hidden;whiteSpace=wrap;html=1;fontSize=16;fontStyle=1" parent="c9gzcdYkhfpSSNdLox6r-28" vertex="1">
          <mxGeometry x="40" width="240" height="39" as="geometry">
            <mxRectangle width="240" height="39" as="alternateBounds" />
          </mxGeometry>
        </mxCell>
        <mxCell id="c9gzcdYkhfpSSNdLox6r-31" style="shape=tableRow;horizontal=0;startSize=0;swimlaneHead=0;swimlaneBody=0;fillColor=none;collapsible=0;dropTarget=0;points=[[0,0.5],[1,0.5]];portConstraint=eastwest;top=0;left=0;right=0;bottom=0;fontSize=16;fontStyle=1" parent="c9gzcdYkhfpSSNdLox6r-2" vertex="1">
          <mxGeometry y="314" width="280" height="39" as="geometry" />
        </mxCell>
        <mxCell id="c9gzcdYkhfpSSNdLox6r-32" style="shape=partialRectangle;connectable=0;fillColor=none;top=0;left=0;bottom=0;right=0;editable=1;overflow=hidden;whiteSpace=wrap;html=1;fontSize=16;fontStyle=1" parent="c9gzcdYkhfpSSNdLox6r-31" vertex="1">
          <mxGeometry width="40" height="39" as="geometry">
            <mxRectangle width="40" height="39" as="alternateBounds" />
          </mxGeometry>
        </mxCell>
        <mxCell id="c9gzcdYkhfpSSNdLox6r-33" value="gender" style="shape=partialRectangle;connectable=0;fillColor=none;top=0;left=0;bottom=0;right=0;align=left;spacingLeft=6;overflow=hidden;whiteSpace=wrap;html=1;fontSize=16;fontStyle=1" parent="c9gzcdYkhfpSSNdLox6r-31" vertex="1">
          <mxGeometry x="40" width="240" height="39" as="geometry">
            <mxRectangle width="240" height="39" as="alternateBounds" />
          </mxGeometry>
        </mxCell>
        <mxCell id="c9gzcdYkhfpSSNdLox6r-34" style="shape=tableRow;horizontal=0;startSize=0;swimlaneHead=0;swimlaneBody=0;fillColor=none;collapsible=0;dropTarget=0;points=[[0,0.5],[1,0.5]];portConstraint=eastwest;top=0;left=0;right=0;bottom=0;fontSize=16;fontStyle=1" parent="c9gzcdYkhfpSSNdLox6r-2" vertex="1">
          <mxGeometry y="353" width="280" height="39" as="geometry" />
        </mxCell>
        <mxCell id="c9gzcdYkhfpSSNdLox6r-35" style="shape=partialRectangle;connectable=0;fillColor=none;top=0;left=0;bottom=0;right=0;editable=1;overflow=hidden;whiteSpace=wrap;html=1;fontSize=16;fontStyle=1" parent="c9gzcdYkhfpSSNdLox6r-34" vertex="1">
          <mxGeometry width="40" height="39" as="geometry">
            <mxRectangle width="40" height="39" as="alternateBounds" />
          </mxGeometry>
        </mxCell>
        <mxCell id="c9gzcdYkhfpSSNdLox6r-36" value="birthdate" style="shape=partialRectangle;connectable=0;fillColor=none;top=0;left=0;bottom=0;right=0;align=left;spacingLeft=6;overflow=hidden;whiteSpace=wrap;html=1;fontSize=16;fontStyle=1" parent="c9gzcdYkhfpSSNdLox6r-34" vertex="1">
          <mxGeometry x="40" width="240" height="39" as="geometry">
            <mxRectangle width="240" height="39" as="alternateBounds" />
          </mxGeometry>
        </mxCell>
        <mxCell id="c9gzcdYkhfpSSNdLox6r-37" style="shape=tableRow;horizontal=0;startSize=0;swimlaneHead=0;swimlaneBody=0;fillColor=none;collapsible=0;dropTarget=0;points=[[0,0.5],[1,0.5]];portConstraint=eastwest;top=0;left=0;right=0;bottom=0;fontSize=16;fontStyle=1" parent="c9gzcdYkhfpSSNdLox6r-2" vertex="1">
          <mxGeometry y="392" width="280" height="48" as="geometry" />
        </mxCell>
        <mxCell id="c9gzcdYkhfpSSNdLox6r-38" style="shape=partialRectangle;connectable=0;fillColor=none;top=0;left=0;bottom=0;right=0;editable=1;overflow=hidden;whiteSpace=wrap;html=1;fontSize=16;fontStyle=1" parent="c9gzcdYkhfpSSNdLox6r-37" vertex="1">
          <mxGeometry width="40" height="48" as="geometry">
            <mxRectangle width="40" height="48" as="alternateBounds" />
          </mxGeometry>
        </mxCell>
        <mxCell id="c9gzcdYkhfpSSNdLox6r-39" value="create_date" style="shape=partialRectangle;connectable=0;fillColor=none;top=0;left=0;bottom=0;right=0;align=left;spacingLeft=6;overflow=hidden;whiteSpace=wrap;html=1;fontSize=16;fontStyle=1" parent="c9gzcdYkhfpSSNdLox6r-37" vertex="1">
          <mxGeometry x="40" width="240" height="48" as="geometry">
            <mxRectangle width="240" height="48" as="alternateBounds" />
          </mxGeometry>
        </mxCell>
        <mxCell id="c9gzcdYkhfpSSNdLox6r-71" value="gold.dim_products" style="shape=table;startSize=40;container=1;collapsible=1;childLayout=tableLayout;fixedRows=1;rowLines=0;fontStyle=1;align=center;resizeLast=1;html=1;rounded=1;fontSize=16;fillColor=#fff2cc;strokeColor=#d6b656;" parent="1" vertex="1">
          <mxGeometry x="1040" y="160" width="280" height="480.0000000000002" as="geometry" />
        </mxCell>
        <mxCell id="c9gzcdYkhfpSSNdLox6r-72" value="" style="shape=tableRow;horizontal=0;startSize=0;swimlaneHead=0;swimlaneBody=0;fillColor=none;collapsible=0;dropTarget=0;points=[[0,0.5],[1,0.5]];portConstraint=eastwest;top=0;left=0;right=0;bottom=1;fontSize=16;fontStyle=1" parent="c9gzcdYkhfpSSNdLox6r-71" vertex="1">
          <mxGeometry y="40" width="280" height="40" as="geometry" />
        </mxCell>
        <mxCell id="c9gzcdYkhfpSSNdLox6r-73" value="PK" style="shape=partialRectangle;connectable=0;fillColor=none;top=0;left=0;bottom=0;right=0;fontStyle=1;overflow=hidden;whiteSpace=wrap;html=1;fontSize=16;" parent="c9gzcdYkhfpSSNdLox6r-72" vertex="1">
          <mxGeometry width="40" height="40" as="geometry">
            <mxRectangle width="40" height="40" as="alternateBounds" />
          </mxGeometry>
        </mxCell>
        <mxCell id="c9gzcdYkhfpSSNdLox6r-74" value="product_key" style="shape=partialRectangle;connectable=0;fillColor=none;top=0;left=0;bottom=0;right=0;align=left;spacingLeft=6;fontStyle=5;overflow=hidden;whiteSpace=wrap;html=1;fontSize=16;" parent="c9gzcdYkhfpSSNdLox6r-72" vertex="1">
          <mxGeometry x="40" width="240" height="40" as="geometry">
            <mxRectangle width="240" height="40" as="alternateBounds" />
          </mxGeometry>
        </mxCell>
        <mxCell id="c9gzcdYkhfpSSNdLox6r-75" value="" style="shape=tableRow;horizontal=0;startSize=0;swimlaneHead=0;swimlaneBody=0;fillColor=none;collapsible=0;dropTarget=0;points=[[0,0.5],[1,0.5]];portConstraint=eastwest;top=0;left=0;right=0;bottom=0;fontSize=16;fontStyle=1" parent="c9gzcdYkhfpSSNdLox6r-71" vertex="1">
          <mxGeometry y="80" width="280" height="39" as="geometry" />
        </mxCell>
        <mxCell id="c9gzcdYkhfpSSNdLox6r-76" value="" style="shape=partialRectangle;connectable=0;fillColor=none;top=0;left=0;bottom=0;right=0;editable=1;overflow=hidden;whiteSpace=wrap;html=1;fontSize=16;fontStyle=1" parent="c9gzcdYkhfpSSNdLox6r-75" vertex="1">
          <mxGeometry width="40" height="39" as="geometry">
            <mxRectangle width="40" height="39" as="alternateBounds" />
          </mxGeometry>
        </mxCell>
        <mxCell id="c9gzcdYkhfpSSNdLox6r-77" value="product_id" style="shape=partialRectangle;connectable=0;fillColor=none;top=0;left=0;bottom=0;right=0;align=left;spacingLeft=6;overflow=hidden;whiteSpace=wrap;html=1;fontSize=16;fontStyle=1" parent="c9gzcdYkhfpSSNdLox6r-75" vertex="1">
          <mxGeometry x="40" width="240" height="39" as="geometry">
            <mxRectangle width="240" height="39" as="alternateBounds" />
          </mxGeometry>
        </mxCell>
        <mxCell id="c9gzcdYkhfpSSNdLox6r-78" value="" style="shape=tableRow;horizontal=0;startSize=0;swimlaneHead=0;swimlaneBody=0;fillColor=none;collapsible=0;dropTarget=0;points=[[0,0.5],[1,0.5]];portConstraint=eastwest;top=0;left=0;right=0;bottom=0;fontSize=16;fontStyle=1" parent="c9gzcdYkhfpSSNdLox6r-71" vertex="1">
          <mxGeometry y="119" width="280" height="39" as="geometry" />
        </mxCell>
        <mxCell id="c9gzcdYkhfpSSNdLox6r-79" value="" style="shape=partialRectangle;connectable=0;fillColor=none;top=0;left=0;bottom=0;right=0;editable=1;overflow=hidden;whiteSpace=wrap;html=1;fontSize=16;fontStyle=1" parent="c9gzcdYkhfpSSNdLox6r-78" vertex="1">
          <mxGeometry width="40" height="39" as="geometry">
            <mxRectangle width="40" height="39" as="alternateBounds" />
          </mxGeometry>
        </mxCell>
        <mxCell id="c9gzcdYkhfpSSNdLox6r-80" value="product_number" style="shape=partialRectangle;connectable=0;fillColor=none;top=0;left=0;bottom=0;right=0;align=left;spacingLeft=6;overflow=hidden;whiteSpace=wrap;html=1;fontSize=16;fontStyle=1" parent="c9gzcdYkhfpSSNdLox6r-78" vertex="1">
          <mxGeometry x="40" width="240" height="39" as="geometry">
            <mxRectangle width="240" height="39" as="alternateBounds" />
          </mxGeometry>
        </mxCell>
        <mxCell id="c9gzcdYkhfpSSNdLox6r-81" value="" style="shape=tableRow;horizontal=0;startSize=0;swimlaneHead=0;swimlaneBody=0;fillColor=none;collapsible=0;dropTarget=0;points=[[0,0.5],[1,0.5]];portConstraint=eastwest;top=0;left=0;right=0;bottom=0;fontSize=16;fontStyle=1" parent="c9gzcdYkhfpSSNdLox6r-71" vertex="1">
          <mxGeometry y="158" width="280" height="39" as="geometry" />
        </mxCell>
        <mxCell id="c9gzcdYkhfpSSNdLox6r-82" value="" style="shape=partialRectangle;connectable=0;fillColor=none;top=0;left=0;bottom=0;right=0;editable=1;overflow=hidden;whiteSpace=wrap;html=1;fontSize=16;fontStyle=1" parent="c9gzcdYkhfpSSNdLox6r-81" vertex="1">
          <mxGeometry width="40" height="39" as="geometry">
            <mxRectangle width="40" height="39" as="alternateBounds" />
          </mxGeometry>
        </mxCell>
        <mxCell id="c9gzcdYkhfpSSNdLox6r-83" value="product_name" style="shape=partialRectangle;connectable=0;fillColor=none;top=0;left=0;bottom=0;right=0;align=left;spacingLeft=6;overflow=hidden;whiteSpace=wrap;html=1;fontSize=16;fontStyle=1" parent="c9gzcdYkhfpSSNdLox6r-81" vertex="1">
          <mxGeometry x="40" width="240" height="39" as="geometry">
            <mxRectangle width="240" height="39" as="alternateBounds" />
          </mxGeometry>
        </mxCell>
        <mxCell id="c9gzcdYkhfpSSNdLox6r-84" style="shape=tableRow;horizontal=0;startSize=0;swimlaneHead=0;swimlaneBody=0;fillColor=none;collapsible=0;dropTarget=0;points=[[0,0.5],[1,0.5]];portConstraint=eastwest;top=0;left=0;right=0;bottom=0;fontSize=16;fontStyle=1" parent="c9gzcdYkhfpSSNdLox6r-71" vertex="1">
          <mxGeometry y="197" width="280" height="39" as="geometry" />
        </mxCell>
        <mxCell id="c9gzcdYkhfpSSNdLox6r-85" style="shape=partialRectangle;connectable=0;fillColor=none;top=0;left=0;bottom=0;right=0;editable=1;overflow=hidden;whiteSpace=wrap;html=1;fontSize=16;fontStyle=1" parent="c9gzcdYkhfpSSNdLox6r-84" vertex="1">
          <mxGeometry width="40" height="39" as="geometry">
            <mxRectangle width="40" height="39" as="alternateBounds" />
          </mxGeometry>
        </mxCell>
        <mxCell id="c9gzcdYkhfpSSNdLox6r-86" value="category_id" style="shape=partialRectangle;connectable=0;fillColor=none;top=0;left=0;bottom=0;right=0;align=left;spacingLeft=6;overflow=hidden;whiteSpace=wrap;html=1;fontSize=16;fontStyle=1" parent="c9gzcdYkhfpSSNdLox6r-84" vertex="1">
          <mxGeometry x="40" width="240" height="39" as="geometry">
            <mxRectangle width="240" height="39" as="alternateBounds" />
          </mxGeometry>
        </mxCell>
        <mxCell id="c9gzcdYkhfpSSNdLox6r-87" style="shape=tableRow;horizontal=0;startSize=0;swimlaneHead=0;swimlaneBody=0;fillColor=none;collapsible=0;dropTarget=0;points=[[0,0.5],[1,0.5]];portConstraint=eastwest;top=0;left=0;right=0;bottom=0;fontSize=16;fontStyle=1" parent="c9gzcdYkhfpSSNdLox6r-71" vertex="1">
          <mxGeometry y="236" width="280" height="39" as="geometry" />
        </mxCell>
        <mxCell id="c9gzcdYkhfpSSNdLox6r-88" style="shape=partialRectangle;connectable=0;fillColor=none;top=0;left=0;bottom=0;right=0;editable=1;overflow=hidden;whiteSpace=wrap;html=1;fontSize=16;fontStyle=1" parent="c9gzcdYkhfpSSNdLox6r-87" vertex="1">
          <mxGeometry width="40" height="39" as="geometry">
            <mxRectangle width="40" height="39" as="alternateBounds" />
          </mxGeometry>
        </mxCell>
        <mxCell id="c9gzcdYkhfpSSNdLox6r-89" value="category" style="shape=partialRectangle;connectable=0;fillColor=none;top=0;left=0;bottom=0;right=0;align=left;spacingLeft=6;overflow=hidden;whiteSpace=wrap;html=1;fontSize=16;fontStyle=1" parent="c9gzcdYkhfpSSNdLox6r-87" vertex="1">
          <mxGeometry x="40" width="240" height="39" as="geometry">
            <mxRectangle width="240" height="39" as="alternateBounds" />
          </mxGeometry>
        </mxCell>
        <mxCell id="c9gzcdYkhfpSSNdLox6r-90" style="shape=tableRow;horizontal=0;startSize=0;swimlaneHead=0;swimlaneBody=0;fillColor=none;collapsible=0;dropTarget=0;points=[[0,0.5],[1,0.5]];portConstraint=eastwest;top=0;left=0;right=0;bottom=0;fontSize=16;fontStyle=1" parent="c9gzcdYkhfpSSNdLox6r-71" vertex="1">
          <mxGeometry y="275" width="280" height="39" as="geometry" />
        </mxCell>
        <mxCell id="c9gzcdYkhfpSSNdLox6r-91" style="shape=partialRectangle;connectable=0;fillColor=none;top=0;left=0;bottom=0;right=0;editable=1;overflow=hidden;whiteSpace=wrap;html=1;fontSize=16;fontStyle=1" parent="c9gzcdYkhfpSSNdLox6r-90" vertex="1">
          <mxGeometry width="40" height="39" as="geometry">
            <mxRectangle width="40" height="39" as="alternateBounds" />
          </mxGeometry>
        </mxCell>
        <mxCell id="c9gzcdYkhfpSSNdLox6r-92" value="subcategory" style="shape=partialRectangle;connectable=0;fillColor=none;top=0;left=0;bottom=0;right=0;align=left;spacingLeft=6;overflow=hidden;whiteSpace=wrap;html=1;fontSize=16;fontStyle=1" parent="c9gzcdYkhfpSSNdLox6r-90" vertex="1">
          <mxGeometry x="40" width="240" height="39" as="geometry">
            <mxRectangle width="240" height="39" as="alternateBounds" />
          </mxGeometry>
        </mxCell>
        <mxCell id="c9gzcdYkhfpSSNdLox6r-93" style="shape=tableRow;horizontal=0;startSize=0;swimlaneHead=0;swimlaneBody=0;fillColor=none;collapsible=0;dropTarget=0;points=[[0,0.5],[1,0.5]];portConstraint=eastwest;top=0;left=0;right=0;bottom=0;fontSize=16;fontStyle=1" parent="c9gzcdYkhfpSSNdLox6r-71" vertex="1">
          <mxGeometry y="314" width="280" height="39" as="geometry" />
        </mxCell>
        <mxCell id="c9gzcdYkhfpSSNdLox6r-94" style="shape=partialRectangle;connectable=0;fillColor=none;top=0;left=0;bottom=0;right=0;editable=1;overflow=hidden;whiteSpace=wrap;html=1;fontSize=16;fontStyle=1" parent="c9gzcdYkhfpSSNdLox6r-93" vertex="1">
          <mxGeometry width="40" height="39" as="geometry">
            <mxRectangle width="40" height="39" as="alternateBounds" />
          </mxGeometry>
        </mxCell>
        <mxCell id="c9gzcdYkhfpSSNdLox6r-95" value="maintenance" style="shape=partialRectangle;connectable=0;fillColor=none;top=0;left=0;bottom=0;right=0;align=left;spacingLeft=6;overflow=hidden;whiteSpace=wrap;html=1;fontSize=16;fontStyle=1" parent="c9gzcdYkhfpSSNdLox6r-93" vertex="1">
          <mxGeometry x="40" width="240" height="39" as="geometry">
            <mxRectangle width="240" height="39" as="alternateBounds" />
          </mxGeometry>
        </mxCell>
        <mxCell id="c9gzcdYkhfpSSNdLox6r-96" style="shape=tableRow;horizontal=0;startSize=0;swimlaneHead=0;swimlaneBody=0;fillColor=none;collapsible=0;dropTarget=0;points=[[0,0.5],[1,0.5]];portConstraint=eastwest;top=0;left=0;right=0;bottom=0;fontSize=16;fontStyle=1" parent="c9gzcdYkhfpSSNdLox6r-71" vertex="1">
          <mxGeometry y="353" width="280" height="39" as="geometry" />
        </mxCell>
        <mxCell id="c9gzcdYkhfpSSNdLox6r-97" style="shape=partialRectangle;connectable=0;fillColor=none;top=0;left=0;bottom=0;right=0;editable=1;overflow=hidden;whiteSpace=wrap;html=1;fontSize=16;fontStyle=1" parent="c9gzcdYkhfpSSNdLox6r-96" vertex="1">
          <mxGeometry width="40" height="39" as="geometry">
            <mxRectangle width="40" height="39" as="alternateBounds" />
          </mxGeometry>
        </mxCell>
        <mxCell id="c9gzcdYkhfpSSNdLox6r-98" value="cost" style="shape=partialRectangle;connectable=0;fillColor=none;top=0;left=0;bottom=0;right=0;align=left;spacingLeft=6;overflow=hidden;whiteSpace=wrap;html=1;fontSize=16;fontStyle=1" parent="c9gzcdYkhfpSSNdLox6r-96" vertex="1">
          <mxGeometry x="40" width="240" height="39" as="geometry">
            <mxRectangle width="240" height="39" as="alternateBounds" />
          </mxGeometry>
        </mxCell>
        <mxCell id="c9gzcdYkhfpSSNdLox6r-99" style="shape=tableRow;horizontal=0;startSize=0;swimlaneHead=0;swimlaneBody=0;fillColor=none;collapsible=0;dropTarget=0;points=[[0,0.5],[1,0.5]];portConstraint=eastwest;top=0;left=0;right=0;bottom=0;fontSize=16;fontStyle=1" parent="c9gzcdYkhfpSSNdLox6r-71" vertex="1">
          <mxGeometry y="392" width="280" height="48" as="geometry" />
        </mxCell>
        <mxCell id="c9gzcdYkhfpSSNdLox6r-100" style="shape=partialRectangle;connectable=0;fillColor=none;top=0;left=0;bottom=0;right=0;editable=1;overflow=hidden;whiteSpace=wrap;html=1;fontSize=16;fontStyle=1" parent="c9gzcdYkhfpSSNdLox6r-99" vertex="1">
          <mxGeometry width="40" height="48" as="geometry">
            <mxRectangle width="40" height="48" as="alternateBounds" />
          </mxGeometry>
        </mxCell>
        <mxCell id="c9gzcdYkhfpSSNdLox6r-101" value="product_line" style="shape=partialRectangle;connectable=0;fillColor=none;top=0;left=0;bottom=0;right=0;align=left;spacingLeft=6;overflow=hidden;whiteSpace=wrap;html=1;fontSize=16;fontStyle=1" parent="c9gzcdYkhfpSSNdLox6r-99" vertex="1">
          <mxGeometry x="40" width="240" height="48" as="geometry">
            <mxRectangle width="240" height="48" as="alternateBounds" />
          </mxGeometry>
        </mxCell>
        <mxCell id="c9gzcdYkhfpSSNdLox6r-102" style="shape=tableRow;horizontal=0;startSize=0;swimlaneHead=0;swimlaneBody=0;fillColor=none;collapsible=0;dropTarget=0;points=[[0,0.5],[1,0.5]];portConstraint=eastwest;top=0;left=0;right=0;bottom=0;fontSize=16;fontStyle=1" parent="c9gzcdYkhfpSSNdLox6r-71" vertex="1">
          <mxGeometry y="440" width="280" height="40" as="geometry" />
        </mxCell>
        <mxCell id="c9gzcdYkhfpSSNdLox6r-103" style="shape=partialRectangle;connectable=0;fillColor=none;top=0;left=0;bottom=0;right=0;editable=1;overflow=hidden;whiteSpace=wrap;html=1;fontSize=16;fontStyle=1" parent="c9gzcdYkhfpSSNdLox6r-102" vertex="1">
          <mxGeometry width="40" height="40" as="geometry">
            <mxRectangle width="40" height="40" as="alternateBounds" />
          </mxGeometry>
        </mxCell>
        <mxCell id="c9gzcdYkhfpSSNdLox6r-104" value="start_date" style="shape=partialRectangle;connectable=0;fillColor=none;top=0;left=0;bottom=0;right=0;align=left;spacingLeft=6;overflow=hidden;whiteSpace=wrap;html=1;fontSize=16;fontStyle=1" parent="c9gzcdYkhfpSSNdLox6r-102" vertex="1">
          <mxGeometry x="40" width="240" height="40" as="geometry">
            <mxRectangle width="240" height="40" as="alternateBounds" />
          </mxGeometry>
        </mxCell>
        <mxCell id="c9gzcdYkhfpSSNdLox6r-105" value="gold.fact_sales" style="shape=table;startSize=40;container=1;collapsible=1;childLayout=tableLayout;fixedRows=1;rowLines=0;fontStyle=1;align=center;resizeLast=1;html=1;rounded=1;fontSize=16;fillColor=#dae8fc;strokeColor=#6c8ebf;" parent="1" vertex="1">
          <mxGeometry x="600" y="160" width="280" height="400.0000000000002" as="geometry" />
        </mxCell>
        <mxCell id="c9gzcdYkhfpSSNdLox6r-109" value="" style="shape=tableRow;horizontal=0;startSize=0;swimlaneHead=0;swimlaneBody=0;fillColor=none;collapsible=0;dropTarget=0;points=[[0,0.5],[1,0.5]];portConstraint=eastwest;top=0;left=0;right=0;bottom=0;fontSize=16;fontStyle=1" parent="c9gzcdYkhfpSSNdLox6r-105" vertex="1">
          <mxGeometry y="40" width="280" height="39" as="geometry" />
        </mxCell>
        <mxCell id="c9gzcdYkhfpSSNdLox6r-110" value="" style="shape=partialRectangle;connectable=0;fillColor=none;top=0;left=0;bottom=0;right=0;editable=1;overflow=hidden;whiteSpace=wrap;html=1;fontSize=16;fontStyle=1" parent="c9gzcdYkhfpSSNdLox6r-109" vertex="1">
          <mxGeometry width="39" height="39" as="geometry">
            <mxRectangle width="39" height="39" as="alternateBounds" />
          </mxGeometry>
        </mxCell>
        <mxCell id="c9gzcdYkhfpSSNdLox6r-111" value="order_number" style="shape=partialRectangle;connectable=0;fillColor=none;top=0;left=0;bottom=0;right=0;align=left;spacingLeft=6;overflow=hidden;whiteSpace=wrap;html=1;fontSize=16;fontStyle=1" parent="c9gzcdYkhfpSSNdLox6r-109" vertex="1">
          <mxGeometry x="39" width="241" height="39" as="geometry">
            <mxRectangle width="241" height="39" as="alternateBounds" />
          </mxGeometry>
        </mxCell>
        <mxCell id="c9gzcdYkhfpSSNdLox6r-112" value="" style="shape=tableRow;horizontal=0;startSize=0;swimlaneHead=0;swimlaneBody=0;fillColor=none;collapsible=0;dropTarget=0;points=[[0,0.5],[1,0.5]];portConstraint=eastwest;top=0;left=0;right=0;bottom=0;fontSize=16;fontStyle=1" parent="c9gzcdYkhfpSSNdLox6r-105" vertex="1">
          <mxGeometry y="79" width="280" height="39" as="geometry" />
        </mxCell>
        <mxCell id="c9gzcdYkhfpSSNdLox6r-113" value="FK1" style="shape=partialRectangle;connectable=0;fillColor=none;top=0;left=0;bottom=0;right=0;editable=1;overflow=hidden;whiteSpace=wrap;html=1;fontSize=16;fontStyle=1" parent="c9gzcdYkhfpSSNdLox6r-112" vertex="1">
          <mxGeometry width="39" height="39" as="geometry">
            <mxRectangle width="39" height="39" as="alternateBounds" />
          </mxGeometry>
        </mxCell>
        <mxCell id="c9gzcdYkhfpSSNdLox6r-114" value="product_key" style="shape=partialRectangle;connectable=0;fillColor=none;top=0;left=0;bottom=0;right=0;align=left;spacingLeft=6;overflow=hidden;whiteSpace=wrap;html=1;fontSize=16;fontStyle=1" parent="c9gzcdYkhfpSSNdLox6r-112" vertex="1">
          <mxGeometry x="39" width="241" height="39" as="geometry">
            <mxRectangle width="241" height="39" as="alternateBounds" />
          </mxGeometry>
        </mxCell>
        <mxCell id="c9gzcdYkhfpSSNdLox6r-115" value="" style="shape=tableRow;horizontal=0;startSize=0;swimlaneHead=0;swimlaneBody=0;fillColor=none;collapsible=0;dropTarget=0;points=[[0,0.5],[1,0.5]];portConstraint=eastwest;top=0;left=0;right=0;bottom=0;fontSize=16;fontStyle=1" parent="c9gzcdYkhfpSSNdLox6r-105" vertex="1">
          <mxGeometry y="118" width="280" height="39" as="geometry" />
        </mxCell>
        <mxCell id="c9gzcdYkhfpSSNdLox6r-116" value="FK2" style="shape=partialRectangle;connectable=0;fillColor=none;top=0;left=0;bottom=0;right=0;editable=1;overflow=hidden;whiteSpace=wrap;html=1;fontSize=16;fontStyle=1" parent="c9gzcdYkhfpSSNdLox6r-115" vertex="1">
          <mxGeometry width="39" height="39" as="geometry">
            <mxRectangle width="39" height="39" as="alternateBounds" />
          </mxGeometry>
        </mxCell>
        <mxCell id="c9gzcdYkhfpSSNdLox6r-117" value="customer_key" style="shape=partialRectangle;connectable=0;fillColor=none;top=0;left=0;bottom=0;right=0;align=left;spacingLeft=6;overflow=hidden;whiteSpace=wrap;html=1;fontSize=16;fontStyle=1" parent="c9gzcdYkhfpSSNdLox6r-115" vertex="1">
          <mxGeometry x="39" width="241" height="39" as="geometry">
            <mxRectangle width="241" height="39" as="alternateBounds" />
          </mxGeometry>
        </mxCell>
        <mxCell id="c9gzcdYkhfpSSNdLox6r-118" style="shape=tableRow;horizontal=0;startSize=0;swimlaneHead=0;swimlaneBody=0;fillColor=none;collapsible=0;dropTarget=0;points=[[0,0.5],[1,0.5]];portConstraint=eastwest;top=0;left=0;right=0;bottom=0;fontSize=16;fontStyle=1" parent="c9gzcdYkhfpSSNdLox6r-105" vertex="1">
          <mxGeometry y="157" width="280" height="39" as="geometry" />
        </mxCell>
        <mxCell id="c9gzcdYkhfpSSNdLox6r-119" style="shape=partialRectangle;connectable=0;fillColor=none;top=0;left=0;bottom=0;right=0;editable=1;overflow=hidden;whiteSpace=wrap;html=1;fontSize=16;fontStyle=1" parent="c9gzcdYkhfpSSNdLox6r-118" vertex="1">
          <mxGeometry width="39" height="39" as="geometry">
            <mxRectangle width="39" height="39" as="alternateBounds" />
          </mxGeometry>
        </mxCell>
        <mxCell id="c9gzcdYkhfpSSNdLox6r-120" value="order_date" style="shape=partialRectangle;connectable=0;fillColor=none;top=0;left=0;bottom=0;right=0;align=left;spacingLeft=6;overflow=hidden;whiteSpace=wrap;html=1;fontSize=16;fontStyle=1" parent="c9gzcdYkhfpSSNdLox6r-118" vertex="1">
          <mxGeometry x="39" width="241" height="39" as="geometry">
            <mxRectangle width="241" height="39" as="alternateBounds" />
          </mxGeometry>
        </mxCell>
        <mxCell id="c9gzcdYkhfpSSNdLox6r-121" style="shape=tableRow;horizontal=0;startSize=0;swimlaneHead=0;swimlaneBody=0;fillColor=none;collapsible=0;dropTarget=0;points=[[0,0.5],[1,0.5]];portConstraint=eastwest;top=0;left=0;right=0;bottom=0;fontSize=16;fontStyle=1" parent="c9gzcdYkhfpSSNdLox6r-105" vertex="1">
          <mxGeometry y="196" width="280" height="39" as="geometry" />
        </mxCell>
        <mxCell id="c9gzcdYkhfpSSNdLox6r-122" style="shape=partialRectangle;connectable=0;fillColor=none;top=0;left=0;bottom=0;right=0;editable=1;overflow=hidden;whiteSpace=wrap;html=1;fontSize=16;fontStyle=1" parent="c9gzcdYkhfpSSNdLox6r-121" vertex="1">
          <mxGeometry width="39" height="39" as="geometry">
            <mxRectangle width="39" height="39" as="alternateBounds" />
          </mxGeometry>
        </mxCell>
        <mxCell id="c9gzcdYkhfpSSNdLox6r-123" value="shipping_date" style="shape=partialRectangle;connectable=0;fillColor=none;top=0;left=0;bottom=0;right=0;align=left;spacingLeft=6;overflow=hidden;whiteSpace=wrap;html=1;fontSize=16;fontStyle=1" parent="c9gzcdYkhfpSSNdLox6r-121" vertex="1">
          <mxGeometry x="39" width="241" height="39" as="geometry">
            <mxRectangle width="241" height="39" as="alternateBounds" />
          </mxGeometry>
        </mxCell>
        <mxCell id="c9gzcdYkhfpSSNdLox6r-124" style="shape=tableRow;horizontal=0;startSize=0;swimlaneHead=0;swimlaneBody=0;fillColor=none;collapsible=0;dropTarget=0;points=[[0,0.5],[1,0.5]];portConstraint=eastwest;top=0;left=0;right=0;bottom=0;fontSize=16;fontStyle=1" parent="c9gzcdYkhfpSSNdLox6r-105" vertex="1">
          <mxGeometry y="235" width="280" height="39" as="geometry" />
        </mxCell>
        <mxCell id="c9gzcdYkhfpSSNdLox6r-125" style="shape=partialRectangle;connectable=0;fillColor=none;top=0;left=0;bottom=0;right=0;editable=1;overflow=hidden;whiteSpace=wrap;html=1;fontSize=16;fontStyle=1" parent="c9gzcdYkhfpSSNdLox6r-124" vertex="1">
          <mxGeometry width="39" height="39" as="geometry">
            <mxRectangle width="39" height="39" as="alternateBounds" />
          </mxGeometry>
        </mxCell>
        <mxCell id="c9gzcdYkhfpSSNdLox6r-126" value="due_date" style="shape=partialRectangle;connectable=0;fillColor=none;top=0;left=0;bottom=0;right=0;align=left;spacingLeft=6;overflow=hidden;whiteSpace=wrap;html=1;fontSize=16;fontStyle=1" parent="c9gzcdYkhfpSSNdLox6r-124" vertex="1">
          <mxGeometry x="39" width="241" height="39" as="geometry">
            <mxRectangle width="241" height="39" as="alternateBounds" />
          </mxGeometry>
        </mxCell>
        <mxCell id="c9gzcdYkhfpSSNdLox6r-127" style="shape=tableRow;horizontal=0;startSize=0;swimlaneHead=0;swimlaneBody=0;fillColor=none;collapsible=0;dropTarget=0;points=[[0,0.5],[1,0.5]];portConstraint=eastwest;top=0;left=0;right=0;bottom=0;fontSize=16;fontStyle=1" parent="c9gzcdYkhfpSSNdLox6r-105" vertex="1">
          <mxGeometry y="274" width="280" height="39" as="geometry" />
        </mxCell>
        <mxCell id="c9gzcdYkhfpSSNdLox6r-128" style="shape=partialRectangle;connectable=0;fillColor=none;top=0;left=0;bottom=0;right=0;editable=1;overflow=hidden;whiteSpace=wrap;html=1;fontSize=16;fontStyle=1" parent="c9gzcdYkhfpSSNdLox6r-127" vertex="1">
          <mxGeometry width="39" height="39" as="geometry">
            <mxRectangle width="39" height="39" as="alternateBounds" />
          </mxGeometry>
        </mxCell>
        <mxCell id="c9gzcdYkhfpSSNdLox6r-129" value="sales_amount" style="shape=partialRectangle;connectable=0;fillColor=none;top=0;left=0;bottom=0;right=0;align=left;spacingLeft=6;overflow=hidden;whiteSpace=wrap;html=1;fontSize=16;fontStyle=1" parent="c9gzcdYkhfpSSNdLox6r-127" vertex="1">
          <mxGeometry x="39" width="241" height="39" as="geometry">
            <mxRectangle width="241" height="39" as="alternateBounds" />
          </mxGeometry>
        </mxCell>
        <mxCell id="c9gzcdYkhfpSSNdLox6r-130" style="shape=tableRow;horizontal=0;startSize=0;swimlaneHead=0;swimlaneBody=0;fillColor=none;collapsible=0;dropTarget=0;points=[[0,0.5],[1,0.5]];portConstraint=eastwest;top=0;left=0;right=0;bottom=0;fontSize=16;fontStyle=1" parent="c9gzcdYkhfpSSNdLox6r-105" vertex="1">
          <mxGeometry y="313" width="280" height="39" as="geometry" />
        </mxCell>
        <mxCell id="c9gzcdYkhfpSSNdLox6r-131" style="shape=partialRectangle;connectable=0;fillColor=none;top=0;left=0;bottom=0;right=0;editable=1;overflow=hidden;whiteSpace=wrap;html=1;fontSize=16;fontStyle=1" parent="c9gzcdYkhfpSSNdLox6r-130" vertex="1">
          <mxGeometry width="39" height="39" as="geometry">
            <mxRectangle width="39" height="39" as="alternateBounds" />
          </mxGeometry>
        </mxCell>
        <mxCell id="c9gzcdYkhfpSSNdLox6r-132" value="quantity" style="shape=partialRectangle;connectable=0;fillColor=none;top=0;left=0;bottom=0;right=0;align=left;spacingLeft=6;overflow=hidden;whiteSpace=wrap;html=1;fontSize=16;fontStyle=1" parent="c9gzcdYkhfpSSNdLox6r-130" vertex="1">
          <mxGeometry x="39" width="241" height="39" as="geometry">
            <mxRectangle width="241" height="39" as="alternateBounds" />
          </mxGeometry>
        </mxCell>
        <mxCell id="c9gzcdYkhfpSSNdLox6r-133" style="shape=tableRow;horizontal=0;startSize=0;swimlaneHead=0;swimlaneBody=0;fillColor=none;collapsible=0;dropTarget=0;points=[[0,0.5],[1,0.5]];portConstraint=eastwest;top=0;left=0;right=0;bottom=0;fontSize=16;fontStyle=1" parent="c9gzcdYkhfpSSNdLox6r-105" vertex="1">
          <mxGeometry y="352" width="280" height="48" as="geometry" />
        </mxCell>
        <mxCell id="c9gzcdYkhfpSSNdLox6r-134" style="shape=partialRectangle;connectable=0;fillColor=none;top=0;left=0;bottom=0;right=0;editable=1;overflow=hidden;whiteSpace=wrap;html=1;fontSize=16;fontStyle=1" parent="c9gzcdYkhfpSSNdLox6r-133" vertex="1">
          <mxGeometry width="39" height="48" as="geometry">
            <mxRectangle width="39" height="48" as="alternateBounds" />
          </mxGeometry>
        </mxCell>
        <mxCell id="c9gzcdYkhfpSSNdLox6r-135" value="price" style="shape=partialRectangle;connectable=0;fillColor=none;top=0;left=0;bottom=0;right=0;align=left;spacingLeft=6;overflow=hidden;whiteSpace=wrap;html=1;fontSize=16;fontStyle=1" parent="c9gzcdYkhfpSSNdLox6r-133" vertex="1">
          <mxGeometry x="39" width="241" height="48" as="geometry">
            <mxRectangle width="241" height="48" as="alternateBounds" />
          </mxGeometry>
        </mxCell>
        <mxCell id="c9gzcdYkhfpSSNdLox6r-139" value="" style="edgeStyle=entityRelationEdgeStyle;fontSize=12;html=1;endArrow=ERzeroToMany;startArrow=ERmandOne;rounded=0;entryX=0;entryY=0.5;entryDx=0;entryDy=0;exitX=1;exitY=0.5;exitDx=0;exitDy=0;" parent="1" source="c9gzcdYkhfpSSNdLox6r-3" target="c9gzcdYkhfpSSNdLox6r-115" edge="1">
          <mxGeometry width="100" height="100" relative="1" as="geometry">
            <mxPoint x="440" y="300" as="sourcePoint" />
            <mxPoint x="593.56" y="381.16599999999994" as="targetPoint" />
          </mxGeometry>
        </mxCell>
        <mxCell id="c9gzcdYkhfpSSNdLox6r-140" value="" style="edgeStyle=entityRelationEdgeStyle;fontSize=12;html=1;endArrow=ERoneToMany;startArrow=ERmandOne;rounded=0;entryX=1;entryY=0.5;entryDx=0;entryDy=0;exitX=0;exitY=0.5;exitDx=0;exitDy=0;" parent="1" source="c9gzcdYkhfpSSNdLox6r-72" target="c9gzcdYkhfpSSNdLox6r-112" edge="1">
          <mxGeometry width="100" height="100" relative="1" as="geometry">
            <mxPoint x="870" y="420" as="sourcePoint" />
            <mxPoint x="970" y="320" as="targetPoint" />
          </mxGeometry>
        </mxCell>
        <mxCell id="c9gzcdYkhfpSSNdLox6r-142" value="&lt;h1 style=&quot;margin-top: 0px;&quot;&gt;&lt;font style=&quot;font-size: 14px;&quot;&gt;&lt;u&gt;Sales Calculation&lt;/u&gt;&lt;/font&gt;&lt;/h1&gt;&lt;p&gt;&lt;font style=&quot;font-size: 14px;&quot;&gt;Sales = Quantity * Price&lt;/font&gt;&lt;/p&gt;" style="text;html=1;whiteSpace=wrap;overflow=hidden;rounded=0;strokeColor=default;" parent="1" vertex="1">
          <mxGeometry x="760" y="600" width="160" height="80" as="geometry" />
        </mxCell>
        <mxCell id="c9gzcdYkhfpSSNdLox6r-143" value="" style="endArrow=none;dashed=1;html=1;rounded=0;exitX=0.5;exitY=0;exitDx=0;exitDy=0;" parent="1" source="c9gzcdYkhfpSSNdLox6r-142" edge="1">
          <mxGeometry width="50" height="50" relative="1" as="geometry">
            <mxPoint x="780.0600000000001" y="589.7200000000003" as="sourcePoint" />
            <mxPoint x="749.9967102427814" y="470" as="targetPoint" />
          </mxGeometry>
        </mxCell>
        <mxCell id="SB_s3XcsHxhOqe0eXLSA-1" value="&lt;h1 style=&quot;margin-top: 0px;&quot;&gt;&lt;font style=&quot;font-size: 14px;&quot;&gt;&lt;u&gt;Maintenance&lt;/u&gt;&lt;/font&gt;&lt;/h1&gt;&lt;p&gt;&lt;font style=&quot;font-size: 14px;&quot;&gt;- Yes&lt;/font&gt;&lt;/p&gt;&lt;p&gt;&lt;font style=&quot;font-size: 14px;&quot;&gt;- No&lt;/font&gt;&lt;/p&gt;" style="text;html=1;whiteSpace=wrap;overflow=hidden;rounded=0;strokeColor=default;" vertex="1" parent="1">
          <mxGeometry x="1380" y="570" width="100" height="110" as="geometry" />
        </mxCell>
        <mxCell id="SB_s3XcsHxhOqe0eXLSA-2" value="" style="endArrow=none;dashed=1;html=1;rounded=0;exitX=0.5;exitY=0;exitDx=0;exitDy=0;" edge="1" parent="1" source="SB_s3XcsHxhOqe0eXLSA-1" target="c9gzcdYkhfpSSNdLox6r-93">
          <mxGeometry width="50" height="50" relative="1" as="geometry">
            <mxPoint x="1480.0032897572187" y="630" as="sourcePoint" />
            <mxPoint x="1390" y="500" as="targetPoint" />
          </mxGeometry>
        </mxCell>
        <mxCell id="SB_s3XcsHxhOqe0eXLSA-3" value="&lt;h1 style=&quot;margin-top: 0px;&quot;&gt;&lt;font style=&quot;font-size: 14px;&quot;&gt;&lt;u&gt;Marital Status&lt;/u&gt;&lt;/font&gt;&lt;/h1&gt;&lt;p&gt;&lt;font style=&quot;font-size: 14px;&quot;&gt;- Married&lt;/font&gt;&lt;/p&gt;&lt;p&gt;&lt;font style=&quot;font-size: 14px;&quot;&gt;- Single&lt;/font&gt;&lt;/p&gt;" style="text;html=1;whiteSpace=wrap;overflow=hidden;rounded=0;strokeColor=default;" vertex="1" parent="1">
          <mxGeometry x="60" y="620" width="130" height="110" as="geometry" />
        </mxCell>
        <mxCell id="SB_s3XcsHxhOqe0eXLSA-4" value="" style="endArrow=none;dashed=1;html=1;rounded=0;exitX=0.5;exitY=0;exitDx=0;exitDy=0;entryX=0;entryY=0.5;entryDx=0;entryDy=0;" edge="1" parent="1" source="SB_s3XcsHxhOqe0eXLSA-3" target="c9gzcdYkhfpSSNdLox6r-28">
          <mxGeometry width="50" height="50" relative="1" as="geometry">
            <mxPoint x="150.00328975721857" y="550" as="sourcePoint" />
            <mxPoint x="60" y="420" as="targetPoint" />
          </mxGeometry>
        </mxCell>
      </root>
    </mxGraphModel>
  </diagram>
</mxfile>
